<svg width="26" height="27" viewBox="0 0 26 27" fill="none" xmlns="http://www.w3.org/2000/svg">
<path d="M9.52121 24.0588C10.4088 24.0588 11.1283 23.3181 11.1283 22.4044C11.1283 21.4907 10.4088 20.75 9.52121 20.75C8.6336 20.75 7.91406 21.4907 7.91406 22.4044C7.91406 23.3181 8.6336 24.0588 9.52121 24.0588Z" fill="#474A51"/>
<path d="M19.2859 24.0588C20.1735 24.0588 20.893 23.3181 20.893 22.4044C20.893 21.4907 20.1735 20.75 19.2859 20.75C18.3983 20.75 17.6787 21.4907 17.6787 22.4044C17.6787 23.3181 18.3983 24.0588 19.2859 24.0588Z" fill="#474A51"/>
<path d="M23.6282 4.47797C23.5617 4.39363 23.478 4.32548 23.3829 4.27844C23.2878 4.2314 23.1837 4.20663 23.0782 4.20592H8.20679L8.67107 5.6765H22.1425L20.2354 14.5H9.52107L6.25679 3.86033C6.22148 3.74743 6.16016 3.645 6.07807 3.56178C5.99598 3.47855 5.89556 3.41701 5.78536 3.38239L2.85679 2.45592C2.76674 2.42743 2.67212 2.41748 2.57833 2.42664C2.48455 2.4358 2.39344 2.46388 2.3102 2.50928C2.14208 2.60098 2.01624 2.75767 1.96036 2.94489C1.90447 3.1321 1.92312 3.3345 2.0122 3.50755C2.10128 3.68061 2.25349 3.81015 2.43536 3.86768L4.99964 4.6765L8.27821 15.3383L7.10679 16.3236L7.01393 16.4192C6.72417 16.7629 6.55993 17.1999 6.5495 17.6549C6.53907 18.1099 6.6831 18.5544 6.95679 18.9118C7.15147 19.1555 7.39886 19.349 7.67917 19.4766C7.95948 19.6043 8.26492 19.6627 8.57107 19.6471H20.4925C20.6819 19.6471 20.8636 19.5696 20.9976 19.4317C21.1315 19.2938 21.2068 19.1068 21.2068 18.9118C21.2068 18.7168 21.1315 18.5298 20.9976 18.3919C20.8636 18.254 20.6819 18.1765 20.4925 18.1765H8.45679C8.37453 18.1736 8.2944 18.1489 8.22411 18.1048C8.15383 18.0608 8.09578 17.9988 8.05557 17.9249C8.01536 17.8509 7.99434 17.7676 7.99455 17.6829C7.99477 17.5981 8.0162 17.5149 8.05679 17.4412L9.77821 15.9706H20.8068C20.9719 15.9748 21.1333 15.9199 21.2635 15.8153C21.3938 15.7108 21.4848 15.563 21.5211 15.3971L23.7854 5.10297C23.8071 4.99336 23.8042 4.88008 23.777 4.77177C23.7498 4.66346 23.6989 4.56298 23.6282 4.47797Z" fill="#474A51"/>
</svg>
