<svg width="16" height="14" viewBox="0 0 16 14" fill="none" xmlns="http://www.w3.org/2000/svg">
<path d="M15.4454 2.86902C15.2064 2.30759 14.8619 1.79882 14.4311 1.3712C13.9999 0.94231 13.4916 0.601475 12.9337 0.367231C12.3552 0.123371 11.7347 -0.0014504 11.1083 1.27149e-05C10.2295 1.27149e-05 9.37203 0.244222 8.6269 0.705507C8.44863 0.815853 8.27929 0.937054 8.11885 1.06911C7.95842 0.937054 7.78907 0.815853 7.61081 0.705507C6.86568 0.244222 6.00824 1.27149e-05 5.12941 1.27149e-05C4.49658 1.27149e-05 3.88337 0.123022 3.30402 0.367231C2.74428 0.602396 2.2398 0.940671 1.80662 1.3712C1.37523 1.79834 1.03061 2.30723 0.792317 2.86902C0.544534 3.45332 0.417969 4.07379 0.417969 4.71235C0.417969 5.31473 0.539186 5.94244 0.779839 6.58101C0.981274 7.11465 1.27006 7.66819 1.63906 8.22716C2.22375 9.11174 3.02771 10.0343 4.02597 10.9695C5.68024 12.5198 7.31846 13.5907 7.38798 13.6341L7.81046 13.9091C7.99763 14.0303 8.23829 14.0303 8.42546 13.9091L8.84794 13.6341C8.91746 13.5889 10.5539 12.5198 12.2099 10.9695C13.2082 10.0343 14.0122 9.11174 14.5969 8.22716C14.9659 7.66819 15.2564 7.11465 15.4561 6.58101C15.6967 5.94244 15.818 5.31473 15.818 4.71235C15.8197 4.07379 15.6932 3.45332 15.4454 2.86902V2.86902ZM8.11885 12.4782C8.11885 12.4782 1.77275 8.35198 1.77275 4.71235C1.77275 2.86902 3.2755 1.37482 5.12941 1.37482C6.4325 1.37482 7.56268 2.11288 8.11885 3.19102C8.67503 2.11288 9.8052 1.37482 11.1083 1.37482C12.9622 1.37482 14.4649 2.86902 14.4649 4.71235C14.4649 8.35198 8.11885 12.4782 8.11885 12.4782Z" fill="#B1B1B1"/>
</svg>
