<svg width="157" height="22" viewBox="0 0 157 22" fill="none" xmlns="http://www.w3.org/2000/svg">
<mask id="path-1-outside-1_2217_8135" maskUnits="userSpaceOnUse" x="0" y="0" width="157" height="22" fill="black">
<rect fill="white" width="157" height="22"/>
<path d="M84.5387 7.49712C84.5387 8.38224 84.3584 9.20145 83.9979 9.95475C83.6373 10.708 83.1439 11.3578 82.5177 11.9039C81.9104 12.45 81.1893 12.8832 80.3544 13.2033C79.5194 13.5047 78.6275 13.6553 77.6786 13.6553H73.8074V20.8305H69.4238V1.16943H77.5933C78.637 1.16943 79.5858 1.32009 80.4397 1.62141C81.2937 1.9039 82.0243 2.31821 82.6315 2.86435C83.2388 3.41049 83.7037 4.07904 84.0263 4.87C84.3679 5.64213 84.5387 6.51783 84.5387 7.49712ZM80.0982 7.41237C80.0982 6.62141 79.861 6.03761 79.3866 5.66096C78.9121 5.26548 78.2385 5.06774 77.3655 5.06774H73.8074V9.757H77.4794C78.2005 9.757 78.8172 9.54985 79.3296 9.13554C79.842 8.70239 80.0982 8.128 80.0982 7.41237Z"/>
<path d="M86.7696 20.8305V1.16943H91.1532V16.9321H100.774V20.8305H86.7696Z"/>
<path d="M115.575 20.8305L114.095 16.8192H107.463L105.982 20.8305H101.371L109.057 1.16943H112.501L120.186 20.8305H115.575ZM111.988 10.8869L110.821 6.98864H110.708L109.569 10.8305L108.829 13.1468H112.729L111.988 10.8869Z"/>
<path d="M121.016 20.8305V17.1299L129.727 5.03949H121.386V1.16943H135.021V4.757L126.339 16.8474H135.021V20.8305H121.016Z"/>
<path d="M149.989 20.8305L148.508 16.8192H141.876L140.396 20.8305H135.785L143.47 1.16943H146.914L154.6 20.8305H149.989ZM146.402 10.8869L145.235 6.98864H145.121L143.983 10.8305L143.242 13.1468H147.142L146.402 10.8869Z"/>
<path d="M15.1223 6.31073C14.6479 6.00942 14.1735 5.77401 13.6991 5.60452C13.2436 5.43503 12.7977 5.3032 12.3612 5.20904C11.9437 5.11488 11.5547 5.05838 11.1942 5.03955C10.8336 5.00188 10.5205 4.98305 10.2548 4.98305C9.7045 4.98305 9.25855 5.03955 8.91697 5.15254C8.59437 5.26554 8.3287 5.4162 8.11996 5.60452C7.93019 5.79284 7.79735 6 7.72145 6.22599C7.66452 6.43314 7.63605 6.63088 7.63605 6.81921C7.63605 7.13936 7.69298 7.40301 7.80684 7.61017C7.93968 7.81733 8.15791 7.99623 8.46154 8.14689C8.78414 8.29755 9.21111 8.42938 9.74246 8.54237C10.2928 8.65537 10.9759 8.77778 11.7919 8.9096C12.6079 9.04143 13.386 9.23917 14.1261 9.50282C14.8661 9.74765 15.5113 10.096 16.0617 10.548C16.631 11 17.0769 11.5744 17.3995 12.2712C17.7411 12.9492 17.9119 13.7872 17.9119 14.7853C17.9119 15.8023 17.6842 16.7062 17.2287 17.4972C16.7733 18.2693 16.1755 18.919 15.4354 19.4463C14.7143 19.9548 13.8794 20.3409 12.9305 20.6045C12.0007 20.8682 11.0518 21 10.084 21C9.41985 21 8.74618 20.9623 8.06303 20.887C7.37987 20.8305 6.69671 20.7081 6.01355 20.5198C5.33039 20.3126 4.64724 20.0301 3.96408 19.6723C3.2999 19.3145 2.6452 18.8531 2 18.2881L4.53338 14.9548C5.46323 15.7834 6.40257 16.339 7.3514 16.6215C8.30023 16.8851 9.28702 17.0169 10.3118 17.0169C11.2796 17.0169 12.0196 16.8286 12.532 16.452C13.0444 16.0565 13.3006 15.5951 13.3006 15.0678C13.3006 14.823 13.2721 14.5876 13.2152 14.3616C13.1582 14.1356 13.0349 13.9284 12.8451 13.7401C12.6554 13.533 12.3802 13.3635 12.0196 13.2316C11.6591 13.081 11.1847 12.9774 10.5964 12.9209C9.64757 12.8267 8.7367 12.6761 7.86377 12.4689C6.99085 12.2618 6.21281 11.9416 5.52965 11.5085C4.84649 11.0565 4.29617 10.4821 3.87868 9.78531C3.48018 9.06968 3.28092 8.15631 3.28092 7.0452C3.28092 6.00942 3.48018 5.11488 3.87868 4.36158C4.29617 3.58945 4.82751 2.95857 5.47272 2.46893C6.1369 1.96045 6.87699 1.59322 7.69298 1.36723C8.50898 1.12241 9.32497 1 10.141 1C11.3555 1 12.5605 1.13183 13.756 1.39548C14.9515 1.65913 16.0806 2.13936 17.1433 2.83616L15.1223 6.31073Z"/>
<path d="M29.063 20.8305H25.5049L18.6449 1.16949H23.2562L25.7895 9.13559L27.2697 14.1356H27.412L28.8068 9.22034L31.3117 1.16949H35.8946L29.063 20.8305Z"/>
<path d="M37.9561 20.8305V1.16949H51.9608V5.0678H42.3397V9.05085H50.5376V12.8079H42.3397V16.9322H51.9608V20.8305H37.9561Z"/>
<path d="M62.6056 5.0678V20.8305H58.2504V5.0678H52.8421V1.16949H68.0139V5.0678H62.6056Z"/>
</mask>
<path d="M84.5387 7.49712C84.5387 8.38224 84.3584 9.20145 83.9979 9.95475C83.6373 10.708 83.1439 11.3578 82.5177 11.9039C81.9104 12.45 81.1893 12.8832 80.3544 13.2033C79.5194 13.5047 78.6275 13.6553 77.6786 13.6553H73.8074V20.8305H69.4238V1.16943H77.5933C78.637 1.16943 79.5858 1.32009 80.4397 1.62141C81.2937 1.9039 82.0243 2.31821 82.6315 2.86435C83.2388 3.41049 83.7037 4.07904 84.0263 4.87C84.3679 5.64213 84.5387 6.51783 84.5387 7.49712ZM80.0982 7.41237C80.0982 6.62141 79.861 6.03761 79.3866 5.66096C78.9121 5.26548 78.2385 5.06774 77.3655 5.06774H73.8074V9.757H77.4794C78.2005 9.757 78.8172 9.54985 79.3296 9.13554C79.842 8.70239 80.0982 8.128 80.0982 7.41237Z" fill="#474A51"/>
<path d="M86.7696 20.8305V1.16943H91.1532V16.9321H100.774V20.8305H86.7696Z" fill="#474A51"/>
<path d="M115.575 20.8305L114.095 16.8192H107.463L105.982 20.8305H101.371L109.057 1.16943H112.501L120.186 20.8305H115.575ZM111.988 10.8869L110.821 6.98864H110.708L109.569 10.8305L108.829 13.1468H112.729L111.988 10.8869Z" fill="#474A51"/>
<path d="M121.016 20.8305V17.1299L129.727 5.03949H121.386V1.16943H135.021V4.757L126.339 16.8474H135.021V20.8305H121.016Z" fill="#474A51"/>
<path d="M149.989 20.8305L148.508 16.8192H141.876L140.396 20.8305H135.785L143.47 1.16943H146.914L154.6 20.8305H149.989ZM146.402 10.8869L145.235 6.98864H145.121L143.983 10.8305L143.242 13.1468H147.142L146.402 10.8869Z" fill="#474A51"/>
<path d="M15.1223 6.31073C14.6479 6.00942 14.1735 5.77401 13.6991 5.60452C13.2436 5.43503 12.7977 5.3032 12.3612 5.20904C11.9437 5.11488 11.5547 5.05838 11.1942 5.03955C10.8336 5.00188 10.5205 4.98305 10.2548 4.98305C9.7045 4.98305 9.25855 5.03955 8.91697 5.15254C8.59437 5.26554 8.3287 5.4162 8.11996 5.60452C7.93019 5.79284 7.79735 6 7.72145 6.22599C7.66452 6.43314 7.63605 6.63088 7.63605 6.81921C7.63605 7.13936 7.69298 7.40301 7.80684 7.61017C7.93968 7.81733 8.15791 7.99623 8.46154 8.14689C8.78414 8.29755 9.21111 8.42938 9.74246 8.54237C10.2928 8.65537 10.9759 8.77778 11.7919 8.9096C12.6079 9.04143 13.386 9.23917 14.1261 9.50282C14.8661 9.74765 15.5113 10.096 16.0617 10.548C16.631 11 17.0769 11.5744 17.3995 12.2712C17.7411 12.9492 17.9119 13.7872 17.9119 14.7853C17.9119 15.8023 17.6842 16.7062 17.2287 17.4972C16.7733 18.2693 16.1755 18.919 15.4354 19.4463C14.7143 19.9548 13.8794 20.3409 12.9305 20.6045C12.0007 20.8682 11.0518 21 10.084 21C9.41985 21 8.74618 20.9623 8.06303 20.887C7.37987 20.8305 6.69671 20.7081 6.01355 20.5198C5.33039 20.3126 4.64724 20.0301 3.96408 19.6723C3.2999 19.3145 2.6452 18.8531 2 18.2881L4.53338 14.9548C5.46323 15.7834 6.40257 16.339 7.3514 16.6215C8.30023 16.8851 9.28702 17.0169 10.3118 17.0169C11.2796 17.0169 12.0196 16.8286 12.532 16.452C13.0444 16.0565 13.3006 15.5951 13.3006 15.0678C13.3006 14.823 13.2721 14.5876 13.2152 14.3616C13.1582 14.1356 13.0349 13.9284 12.8451 13.7401C12.6554 13.533 12.3802 13.3635 12.0196 13.2316C11.6591 13.081 11.1847 12.9774 10.5964 12.9209C9.64757 12.8267 8.7367 12.6761 7.86377 12.4689C6.99085 12.2618 6.21281 11.9416 5.52965 11.5085C4.84649 11.0565 4.29617 10.4821 3.87868 9.78531C3.48018 9.06968 3.28092 8.15631 3.28092 7.0452C3.28092 6.00942 3.48018 5.11488 3.87868 4.36158C4.29617 3.58945 4.82751 2.95857 5.47272 2.46893C6.1369 1.96045 6.87699 1.59322 7.69298 1.36723C8.50898 1.12241 9.32497 1 10.141 1C11.3555 1 12.5605 1.13183 13.756 1.39548C14.9515 1.65913 16.0806 2.13936 17.1433 2.83616L15.1223 6.31073Z" fill="#15616D"/>
<path d="M29.063 20.8305H25.5049L18.6449 1.16949H23.2562L25.7895 9.13559L27.2697 14.1356H27.412L28.8068 9.22034L31.3117 1.16949H35.8946L29.063 20.8305Z" fill="#15616D"/>
<path d="M37.9561 20.8305V1.16949H51.9608V5.0678H42.3397V9.05085H50.5376V12.8079H42.3397V16.9322H51.9608V20.8305H37.9561Z" fill="#15616D"/>
<path d="M62.6056 5.0678V20.8305H58.2504V5.0678H52.8421V1.16949H68.0139V5.0678H62.6056Z" fill="#15616D"/>
<path d="M82.5177 11.9039L81.8604 11.1502L81.8547 11.1553L81.849 11.1604L82.5177 11.9039ZM80.3544 13.2033L80.6938 14.144L80.7031 14.1406L80.7124 14.137L80.3544 13.2033ZM73.8074 13.6553V12.6553H72.8074V13.6553H73.8074ZM73.8074 20.8305V21.8305H74.8074V20.8305H73.8074ZM69.4238 20.8305H68.4238V21.8305H69.4238V20.8305ZM69.4238 1.16943V0.169434H68.4238V1.16943H69.4238ZM80.4397 1.62141L80.107 2.56443L80.1163 2.56771L80.1257 2.57081L80.4397 1.62141ZM84.0263 4.87L83.1004 5.24766L83.1059 5.26119L83.1118 5.27457L84.0263 4.87ZM79.3866 5.66096L78.7462 6.42907L78.7554 6.43672L78.7648 6.44415L79.3866 5.66096ZM73.8074 5.06774V4.06774H72.8074V5.06774H73.8074ZM73.8074 9.757H72.8074V10.757H73.8074V9.757ZM79.3296 9.13554L79.9584 9.91312L79.9669 9.90626L79.9752 9.89921L79.3296 9.13554ZM86.7696 20.8305H85.7696V21.8305H86.7696V20.8305ZM86.7696 1.16943V0.169434H85.7696V1.16943H86.7696ZM91.1532 1.16943H92.1532V0.169434H91.1532V1.16943ZM91.1532 16.9321H90.1532V17.9321H91.1532V16.9321ZM100.774 16.9321H101.774V15.9321H100.774V16.9321ZM100.774 20.8305V21.8305H101.774V20.8305H100.774ZM115.575 20.8305L114.637 21.1766L114.878 21.8305H115.575V20.8305ZM114.095 16.8192L115.033 16.473L114.792 15.8192H114.095V16.8192ZM107.463 16.8192V15.8192H106.766L106.524 16.473L107.463 16.8192ZM105.982 20.8305V21.8305H106.679L106.921 21.1766L105.982 20.8305ZM101.371 20.8305L100.44 20.4664L99.9064 21.8305H101.371V20.8305ZM109.057 1.16943V0.169434H108.374L108.125 0.80536L109.057 1.16943ZM112.501 1.16943L113.432 0.805359L113.184 0.169434H112.501V1.16943ZM120.186 20.8305V21.8305H121.651L121.118 20.4664L120.186 20.8305ZM111.988 10.8869L111.03 11.1737L111.034 11.186L111.038 11.1982L111.988 10.8869ZM110.821 6.98864L111.779 6.70184L111.566 5.98864H110.821V6.98864ZM110.708 6.98864V5.98864H109.961L109.749 6.70449L110.708 6.98864ZM109.569 10.8305L110.521 11.1348L110.525 11.1247L110.528 11.1146L109.569 10.8305ZM108.829 13.1468L107.876 12.8425L107.46 14.1468H108.829V13.1468ZM112.729 13.1468V14.1468H114.108L113.679 12.8356L112.729 13.1468ZM121.016 20.8305H120.016V21.8305H121.016V20.8305ZM121.016 17.1299L120.205 16.5454L120.016 16.8072V17.1299H121.016ZM129.727 5.03949L130.538 5.62402L131.679 4.03949H129.727V5.03949ZM121.386 5.03949H120.386V6.03949H121.386V5.03949ZM121.386 1.16943V0.169434H120.386V1.16943H121.386ZM135.021 1.16943H136.021V0.169434H135.021V1.16943ZM135.021 4.757L135.833 5.34028L136.021 5.07885V4.757H135.021ZM126.339 16.8474L125.527 16.2641L124.39 17.8474H126.339V16.8474ZM135.021 16.8474H136.021V15.8474H135.021V16.8474ZM135.021 20.8305V21.8305H136.021V20.8305H135.021ZM149.989 20.8305L149.05 21.1766L149.292 21.8305H149.989V20.8305ZM148.508 16.8192L149.447 16.473L149.205 15.8192H148.508V16.8192ZM141.876 16.8192V15.8192H141.179L140.938 16.473L141.876 16.8192ZM140.396 20.8305V21.8305H141.093L141.334 21.1766L140.396 20.8305ZM135.785 20.8305L134.853 20.4664L134.32 21.8305H135.785V20.8305ZM143.47 1.16943V0.169434H142.787L142.539 0.80536L143.47 1.16943ZM146.914 1.16943L147.846 0.805359L147.597 0.169434H146.914V1.16943ZM154.6 20.8305V21.8305H156.065L155.531 20.4664L154.6 20.8305ZM146.402 10.8869L145.444 11.1737L145.448 11.186L145.452 11.1982L146.402 10.8869ZM145.235 6.98864L146.193 6.70185L145.979 5.98864H145.235V6.98864ZM145.121 6.98864V5.98864H144.375L144.162 6.70449L145.121 6.98864ZM143.983 10.8305L144.935 11.1348L144.938 11.1247L144.941 11.1146L143.983 10.8305ZM143.242 13.1468L142.29 12.8425L141.873 14.1468H143.242V13.1468ZM147.142 13.1468V14.1468H148.522L148.092 12.8356L147.142 13.1468ZM15.1223 6.31073L14.5862 7.15486L15.4639 7.71235L15.9867 6.81352L15.1223 6.31073ZM13.6991 5.60452L13.3503 6.5418L13.3626 6.54623L13.6991 5.60452ZM12.3612 5.20904L12.1412 6.18458L12.1503 6.18655L12.3612 5.20904ZM11.1942 5.03955L11.0903 6.03414L11.1161 6.03683L11.142 6.03819L11.1942 5.03955ZM8.91697 5.15254L8.60291 4.20314L8.59463 4.20588L8.58641 4.20876L8.91697 5.15254ZM8.11996 5.60452L7.4501 4.86203L7.43244 4.87796L7.41555 4.89472L8.11996 5.60452ZM7.72145 6.22599L6.77349 5.90758L6.7646 5.93406L6.7572 5.961L7.72145 6.22599ZM7.80684 7.61017L6.93049 8.09184L6.94678 8.12148L6.96504 8.14996L7.80684 7.61017ZM8.46154 8.14689L8.01705 9.04268L8.02766 9.04794L8.03839 9.05296L8.46154 8.14689ZM9.74246 8.54237L9.53445 9.52052L9.54133 9.52194L9.74246 8.54237ZM11.7919 8.9096L11.9514 7.9224L11.9514 7.9224L11.7919 8.9096ZM14.1261 9.50282L13.7905 10.4448L13.8012 10.4487L13.812 10.4522L14.1261 9.50282ZM16.0617 10.548L15.427 11.3208L15.4334 11.3261L15.4399 11.3312L16.0617 10.548ZM17.3995 12.2712L16.4921 12.6913L16.499 12.7063L16.5065 12.7211L17.3995 12.2712ZM17.2287 17.4972L18.0901 18.0053L18.0953 17.9962L17.2287 17.4972ZM15.4354 19.4463L16.0117 20.2636L16.0157 20.2608L15.4354 19.4463ZM12.9305 20.6045L12.6628 19.641L12.6577 19.6424L12.9305 20.6045ZM8.06303 20.887L8.17263 19.893L8.15905 19.8915L8.14545 19.8904L8.06303 20.887ZM6.01355 20.5198L5.72337 21.4767L5.73554 21.4804L5.7478 21.4838L6.01355 20.5198ZM3.96408 19.6723L3.48976 20.5527L3.5001 20.5582L3.96408 19.6723ZM2 18.2881L1.20384 17.683L0.639307 18.4258L1.34122 19.0405L2 18.2881ZM4.53338 14.9548L5.19868 14.2082L4.39146 13.4889L3.73722 14.3497L4.53338 14.9548ZM7.3514 16.6215L7.06606 17.5799L7.07485 17.5825L7.08368 17.585L7.3514 16.6215ZM12.532 16.452L13.1243 17.2577L13.1338 17.2508L13.143 17.2436L12.532 16.452ZM13.2152 14.3616L12.2455 14.6059L12.2455 14.6059L13.2152 14.3616ZM12.8451 13.7401L12.1078 14.4156L12.1238 14.4331L12.1407 14.4499L12.8451 13.7401ZM12.0196 13.2316L11.6341 14.1543L11.655 14.1631L11.6763 14.1708L12.0196 13.2316ZM10.5964 12.9209L10.4976 13.916L10.5008 13.9163L10.5964 12.9209ZM7.86377 12.4689L7.63287 13.4419L7.63287 13.4419L7.86377 12.4689ZM5.52965 11.5085L4.97788 12.3425L4.98598 12.3478L4.99418 12.353L5.52965 11.5085ZM3.87868 9.78531L3.00501 10.2718L3.01272 10.2857L3.02087 10.2993L3.87868 9.78531ZM3.87868 4.36158L2.999 3.88594L2.99475 3.89396L3.87868 4.36158ZM5.47272 2.46893L6.07725 3.26552L6.0806 3.26295L5.47272 2.46893ZM7.69298 1.36723L7.95988 2.33096L7.97015 2.32811L7.98035 2.32505L7.69298 1.36723ZM13.756 1.39548L13.9714 0.418945L13.9714 0.418945L13.756 1.39548ZM17.1433 2.83616L18.0077 3.33895L18.4843 2.51963L17.6917 1.9999L17.1433 2.83616ZM29.063 20.8305V21.8305H29.7742L30.0076 21.1587L29.063 20.8305ZM25.5049 20.8305L24.5607 21.1599L24.7947 21.8305H25.5049V20.8305ZM18.6449 1.16949V0.169491H17.2368L17.7007 1.49893L18.6449 1.16949ZM23.2562 1.16949L24.2091 0.866428L23.9875 0.169491H23.2562V1.16949ZM25.7895 9.13559L26.7484 8.85173L26.7456 8.8421L26.7425 8.83253L25.7895 9.13559ZM27.2697 14.1356L26.3109 14.4195L26.5229 15.1356H27.2697V14.1356ZM27.412 14.1356V15.1356H28.1678L28.3741 14.4086L27.412 14.1356ZM28.8068 9.22034L27.852 8.92325L27.8482 8.93526L27.8448 8.94735L28.8068 9.22034ZM31.3117 1.16949V0.169491H30.5756L30.3569 0.872402L31.3117 1.16949ZM35.8946 1.16949L36.8392 1.49771L37.3007 0.169491H35.8946V1.16949ZM37.9561 20.8305H36.9561V21.8305H37.9561V20.8305ZM37.9561 1.16949V0.169491H36.9561V1.16949H37.9561ZM51.9608 1.16949H52.9608V0.169491H51.9608V1.16949ZM51.9608 5.0678V6.0678H52.9608V5.0678H51.9608ZM42.3397 5.0678V4.0678H41.3397V5.0678H42.3397ZM42.3397 9.05085H41.3397V10.0508H42.3397V9.05085ZM50.5376 9.05085H51.5376V8.05085H50.5376V9.05085ZM50.5376 12.8079V13.8079H51.5376V12.8079H50.5376ZM42.3397 12.8079V11.8079H41.3397V12.8079H42.3397ZM42.3397 16.9322H41.3397V17.9322H42.3397V16.9322ZM51.9608 16.9322H52.9608V15.9322H51.9608V16.9322ZM51.9608 20.8305V21.8305H52.9608V20.8305H51.9608ZM62.6056 5.0678V4.0678H61.6056V5.0678H62.6056ZM62.6056 20.8305V21.8305H63.6056V20.8305H62.6056ZM58.2504 20.8305H57.2504V21.8305H58.2504V20.8305ZM58.2504 5.0678H59.2504V4.0678H58.2504V5.0678ZM52.8421 5.0678H51.8421V6.0678H52.8421V5.0678ZM52.8421 1.16949V0.169491H51.8421V1.16949H52.8421ZM68.0139 1.16949H69.0139V0.169491H68.0139V1.16949ZM68.0139 5.0678V6.0678H69.0139V5.0678H68.0139ZM83.5387 7.49712C83.5387 8.24196 83.3881 8.91251 83.0959 9.52301L84.8999 10.3865C85.3288 9.49039 85.5387 8.52252 85.5387 7.49712H83.5387ZM83.0959 9.52301C82.7938 10.1541 82.3835 10.6941 81.8604 11.1502L83.175 12.6576C83.9044 12.0214 84.4808 11.262 84.8999 10.3865L83.0959 9.52301ZM81.849 11.1604C81.341 11.6172 80.7278 11.9891 79.9963 12.2696L80.7124 14.137C81.6508 13.7772 82.4798 13.2829 83.1864 12.6474L81.849 11.1604ZM80.0149 12.2627C79.2961 12.5221 78.5198 12.6553 77.6786 12.6553V14.6553C78.7352 14.6553 79.7427 14.4872 80.6938 14.144L80.0149 12.2627ZM77.6786 12.6553H73.8074V14.6553H77.6786V12.6553ZM72.8074 13.6553V20.8305H74.8074V13.6553H72.8074ZM73.8074 19.8305H69.4238V21.8305H73.8074V19.8305ZM70.4238 20.8305V1.16943H68.4238V20.8305H70.4238ZM69.4238 2.16943H77.5933V0.169434H69.4238V2.16943ZM77.5933 2.16943C78.5406 2.16943 79.3749 2.30609 80.107 2.56443L80.7725 0.678396C79.7967 0.334092 78.7333 0.169434 77.5933 0.169434V2.16943ZM80.1257 2.57081C80.8618 2.81434 81.4683 3.1631 81.9628 3.60788L83.3002 2.12082C82.5803 1.47332 81.7255 0.993459 80.7538 0.672009L80.1257 2.57081ZM81.9628 3.60788C82.4526 4.04839 82.8321 4.58992 83.1004 5.24766L84.9523 4.49234C84.5753 3.56816 84.0249 2.77259 83.3002 2.12082L81.9628 3.60788ZM83.1118 5.27457C83.3887 5.9005 83.5387 6.63507 83.5387 7.49712H85.5387C85.5387 6.4006 85.3471 5.38376 84.9408 4.46543L83.1118 5.27457ZM81.0982 7.41237C81.0982 6.41722 80.7909 5.49906 80.0083 4.87777L78.7648 6.44415C78.931 6.57615 79.0982 6.8256 79.0982 7.41237H81.0982ZM80.0269 4.89285C79.3111 4.29613 78.3772 4.06774 77.3655 4.06774V6.06774C78.0998 6.06774 78.5132 6.23483 78.7462 6.42907L80.0269 4.89285ZM77.3655 4.06774H73.8074V6.06774H77.3655V4.06774ZM72.8074 5.06774V9.757H74.8074V5.06774H72.8074ZM73.8074 10.757H77.4794V8.757H73.8074V10.757ZM77.4794 10.757C78.4063 10.757 79.2509 10.4852 79.9584 9.91312L78.7008 8.35795C78.3836 8.6145 77.9947 8.757 77.4794 8.757V10.757ZM79.9752 9.89921C80.7289 9.2621 81.0982 8.39997 81.0982 7.41237H79.0982C79.0982 7.85604 78.9551 8.14269 78.684 8.37186L79.9752 9.89921ZM87.7696 20.8305V1.16943H85.7696V20.8305H87.7696ZM86.7696 2.16943H91.1532V0.169434H86.7696V2.16943ZM90.1532 1.16943V16.9321H92.1532V1.16943H90.1532ZM91.1532 17.9321H100.774V15.9321H91.1532V17.9321ZM99.7744 16.9321V20.8305H101.774V16.9321H99.7744ZM100.774 19.8305H86.7696V21.8305H100.774V19.8305ZM116.513 20.4843L115.033 16.473L113.157 17.1653L114.637 21.1766L116.513 20.4843ZM114.095 15.8192H107.463V17.8192H114.095V15.8192ZM106.524 16.473L105.044 20.4843L106.921 21.1766L108.401 17.1653L106.524 16.473ZM105.982 19.8305H101.371V21.8305H105.982V19.8305ZM102.302 21.1945L109.988 1.53351L108.125 0.80536L100.44 20.4664L102.302 21.1945ZM109.057 2.16943H112.501V0.169434H109.057V2.16943ZM111.569 1.53351L119.255 21.1945L121.118 20.4664L113.432 0.805359L111.569 1.53351ZM120.186 19.8305H115.575V21.8305H120.186V19.8305ZM112.946 10.6001L111.779 6.70184L109.863 7.27544L111.03 11.1737L112.946 10.6001ZM110.821 5.98864H110.708V7.98864H110.821V5.98864ZM109.749 6.70449L108.61 10.5463L110.528 11.1146L111.666 7.2728L109.749 6.70449ZM108.616 10.5261L107.876 12.8425L109.781 13.4512L110.521 11.1348L108.616 10.5261ZM108.829 14.1468H112.729V12.1468H108.829V14.1468ZM113.679 12.8356L112.939 10.5757L111.038 11.1982L111.778 13.4581L113.679 12.8356ZM122.016 20.8305V17.1299H120.016V20.8305H122.016ZM121.828 17.7144L130.538 5.62402L128.915 4.45496L120.205 16.5454L121.828 17.7144ZM129.727 4.03949H121.386V6.03949H129.727V4.03949ZM122.386 5.03949V1.16943H120.386V5.03949H122.386ZM121.386 2.16943H135.021V0.169434H121.386V2.16943ZM134.021 1.16943V4.757H136.021V1.16943H134.021ZM134.209 4.17373L125.527 16.2641L127.151 17.4307L135.833 5.34028L134.209 4.17373ZM126.339 17.8474H135.021V15.8474H126.339V17.8474ZM134.021 16.8474V20.8305H136.021V16.8474H134.021ZM135.021 19.8305H121.016V21.8305H135.021V19.8305ZM150.927 20.4843L149.447 16.473L147.57 17.1653L149.05 21.1766L150.927 20.4843ZM148.508 15.8192H141.876V17.8192H148.508V15.8192ZM140.938 16.473L139.458 20.4843L141.334 21.1766L142.814 17.1653L140.938 16.473ZM140.396 19.8305H135.785V21.8305H140.396V19.8305ZM136.716 21.1945L144.402 1.53351L142.539 0.80536L134.853 20.4664L136.716 21.1945ZM143.47 2.16943H146.914V0.169434H143.47V2.16943ZM145.983 1.53351L153.669 21.1945L155.531 20.4664L147.846 0.805359L145.983 1.53351ZM154.6 19.8305H149.989V21.8305H154.6V19.8305ZM147.36 10.6001L146.193 6.70185L144.277 7.27544L145.444 11.1737L147.36 10.6001ZM145.235 5.98864H145.121V7.98864H145.235V5.98864ZM144.162 6.70449L143.024 10.5463L144.941 11.1146L146.08 7.2728L144.162 6.70449ZM143.03 10.5261L142.29 12.8425L144.195 13.4512L144.935 11.1348L143.03 10.5261ZM143.242 14.1468H147.142V12.1468H143.242V14.1468ZM148.092 12.8356L147.352 10.5757L145.452 11.1982L146.192 13.4581L148.092 12.8356ZM15.6585 5.46661C15.1284 5.12996 14.5874 4.85999 14.0355 4.66281L13.3626 6.54623C13.7596 6.68803 14.1674 6.88888 14.5862 7.15486L15.6585 5.46661ZM14.0479 4.66731C13.5514 4.48255 13.0593 4.33664 12.5721 4.23153L12.1503 6.18655C12.536 6.26976 12.9359 6.38751 13.3503 6.54172L14.0479 4.66731ZM12.5812 4.23354C12.1184 4.12915 11.6726 4.06317 11.2463 4.04091L11.142 6.03819C11.4368 6.05359 11.7691 6.10061 12.1412 6.18453L12.5812 4.23354ZM11.2981 4.04496C10.9145 4.00489 10.5651 3.98305 10.2548 3.98305V5.98305C10.4759 5.98305 10.7527 5.99888 11.0903 6.03414L11.2981 4.04496ZM10.2548 3.98305C9.64808 3.98305 9.08451 4.04383 8.60291 4.20314L9.23104 6.10194C9.4326 6.03527 9.76093 5.98305 10.2548 5.98305V3.98305ZM8.58641 4.20876C8.16484 4.35642 7.77627 4.56776 7.4501 4.86203L8.78981 6.34701C8.88113 6.26463 9.0239 6.17466 9.24754 6.09633L8.58641 4.20876ZM7.41555 4.89472C7.1288 5.1793 6.90474 5.51683 6.77349 5.90758L8.6694 6.54439C8.68997 6.48317 8.73158 6.40639 8.82436 6.31432L7.41555 4.89472ZM6.7572 5.961C6.67981 6.2426 6.63605 6.52981 6.63605 6.81921H8.63605C8.63605 6.73196 8.64923 6.62369 8.6857 6.49098L6.7572 5.961ZM6.63605 6.81921C6.63605 7.25062 6.71184 7.69403 6.93049 8.09184L8.68319 7.1285C8.67413 7.112 8.63605 7.0281 8.63605 6.81921H6.63605ZM6.96504 8.14996C7.22581 8.55662 7.60989 8.84065 8.01705 9.04268L8.90602 7.25111C8.70593 7.15182 8.65355 7.07803 8.64864 7.07038L6.96504 8.14996ZM8.03839 9.05296C8.45562 9.24781 8.96332 9.39905 9.53445 9.5205L9.95046 7.56424C9.4589 7.45971 9.11265 7.3473 8.88468 7.24083L8.03839 9.05296ZM9.54133 9.52194C10.1102 9.63875 10.8083 9.76367 11.6324 9.8968L11.9514 7.9224C11.1435 7.79189 10.4753 7.67198 9.94358 7.56281L9.54133 9.52194ZM11.6324 9.8968C12.3916 10.0194 13.1105 10.2026 13.7905 10.4448L14.4616 8.56082C13.6615 8.27575 12.8243 8.06341 11.9514 7.9224L11.6324 9.8968ZM13.812 10.4522C14.4463 10.6621 14.9804 10.954 15.427 11.3208L16.6963 9.77525C16.0423 9.23809 15.286 8.83323 14.4401 8.55342L13.812 10.4522ZM15.4399 11.3312C15.88 11.6807 16.2312 12.128 16.4921 12.6913L18.307 11.8511C17.9226 11.0208 17.3819 10.3193 16.6835 9.76484L15.4399 11.3312ZM16.5065 12.7211C16.7592 13.2227 16.9119 13.8962 16.9119 14.7853H18.9119C18.9119 13.6782 18.723 12.6756 18.2926 11.8212L16.5065 12.7211ZM16.9119 14.7853C16.9119 15.6476 16.7205 16.3758 16.3621 16.9982L18.0953 17.9962C18.6478 17.0366 18.9119 15.9569 18.9119 14.7853H16.9119ZM16.3674 16.9891C15.9841 17.6389 15.4828 18.1848 14.8552 18.6319L16.0157 20.2608C16.8683 19.6533 17.5624 18.8997 18.0901 18.0052L16.3674 16.9891ZM14.8592 18.6291C14.242 19.0643 13.5139 19.4045 12.6628 19.641L13.1983 21.568C14.2448 21.2772 15.1867 20.8453 16.0117 20.2636L14.8592 18.6291ZM12.6577 19.6424C11.8167 19.8809 10.9597 20 10.084 20V22C11.144 22 12.1846 21.8554 13.2033 21.5666L12.6577 19.6424ZM10.084 20C9.45771 20 8.82065 19.9645 8.17263 19.893L7.95342 21.881C8.67172 21.9602 9.38199 22 10.084 22V20ZM8.14545 19.8904C7.52633 19.8392 6.90452 19.7281 6.27931 19.5557L5.7478 21.4838C6.4889 21.6881 7.2334 21.8218 7.98061 21.8836L8.14545 19.8904ZM6.30374 19.5628C5.68519 19.3752 5.06004 19.1175 4.42806 18.7865L3.5001 20.5582C4.23443 20.9428 4.9756 21.25 5.72337 21.4767L6.30374 19.5628ZM4.43836 18.7919C3.84856 18.4742 3.25502 18.0579 2.65878 17.5358L1.34122 19.0405C2.03539 19.6483 2.75123 20.1548 3.48979 20.5527L4.43836 18.7919ZM2.79616 18.8932L5.32953 15.5599L3.73722 14.3497L1.20384 17.683L2.79616 18.8932ZM3.86808 15.7014C4.88005 16.6032 5.94514 17.2462 7.06606 17.5799L7.63675 15.663C6.86001 15.4318 6.04641 14.9637 5.19868 14.2082L3.86808 15.7014ZM7.08368 17.585C8.12317 17.8738 9.20022 18.0169 10.3118 18.0169V16.0169C9.37382 16.0169 8.4773 15.8964 7.61913 15.658L7.08368 17.585ZM10.3118 18.0169C11.3878 18.0169 12.3716 17.811 13.1243 17.2577L11.9397 15.6463C11.6677 15.8462 11.1713 16.0169 10.3118 16.0169V18.0169ZM13.143 17.2436C13.8388 16.7066 14.3006 15.9756 14.3006 15.0678H12.3006C12.3006 15.2146 12.25 15.4064 11.921 15.6604L13.143 17.2436ZM14.3006 15.0678C14.3006 14.7448 14.2629 14.4271 14.1849 14.1173L12.2455 14.6059C12.2813 14.7481 12.3006 14.9012 12.3006 15.0678H14.3006ZM14.1849 14.1173C14.0773 13.6902 13.8491 13.3276 13.5495 13.0303L12.1407 14.4499C12.2207 14.5293 12.2392 14.581 12.2455 14.6059L14.1849 14.1173ZM13.5825 13.0646C13.2522 12.704 12.8217 12.4601 12.363 12.2924L11.6763 14.1708C11.9387 14.2668 12.0586 14.3619 12.1078 14.4156L13.5825 13.0646ZM12.4052 12.3089C11.9178 12.1053 11.3344 11.9872 10.692 11.9255L10.5008 13.9163C11.0349 13.9676 11.4004 14.0567 11.6341 14.1543L12.4052 12.3089ZM10.6952 11.9258C9.78806 11.8358 8.92148 11.6922 8.09467 11.4959L7.63287 13.4419C8.55192 13.66 9.50708 13.8177 10.4976 13.916L10.6952 11.9258ZM8.09467 11.4959C7.318 11.3116 6.64494 11.0315 6.06512 10.6639L4.99418 12.353C5.78067 12.8517 6.6637 13.2119 7.63287 13.4419L8.09467 11.4959ZM6.08142 10.6745C5.52182 10.3042 5.0765 9.83883 4.7365 9.27135L3.02087 10.2993C3.51584 11.1254 4.17116 11.8087 4.97788 12.3425L6.08142 10.6745ZM4.75236 9.29879C4.46101 8.7756 4.28092 8.04418 4.28092 7.0452H2.28092C2.28092 8.26843 2.49934 9.36376 3.00501 10.2718L4.75236 9.29879ZM4.28092 7.0452C4.28092 6.13766 4.45508 5.41054 4.76261 4.8292L2.99475 3.89396C2.50528 4.81922 2.28092 5.88117 2.28092 7.0452H4.28092ZM4.75833 4.8372C5.11378 4.17981 5.55482 3.66197 6.07724 3.26551L4.86819 1.67234C4.10021 2.25516 3.47856 2.9991 2.99903 3.88596L4.75833 4.8372ZM6.0806 3.26295C6.64177 2.83334 7.26582 2.52317 7.95988 2.33096L7.42608 0.403508C6.48815 0.663265 5.63203 1.08756 4.86484 1.6749L6.0806 3.26295ZM7.98035 2.32505C8.70725 2.10696 9.42652 2 10.141 2V0C9.22342 0 8.31071 0.137859 7.40561 0.409413L7.98035 2.32505ZM10.141 2C11.2825 2 12.4153 2.12383 13.5406 2.37202L13.9714 0.418945C12.7057 0.139821 11.4285 0 10.141 0V2ZM13.5406 2.37202C14.6131 2.60853 15.6299 3.03964 16.595 3.67242L17.6917 1.9999C16.5313 1.23908 15.29 0.709741 13.9714 0.418945L13.5406 2.37202ZM16.2789 2.33337L14.2579 5.80795L15.9867 6.81352L18.0077 3.33895L16.2789 2.33337ZM29.063 19.8305H25.5049V21.8305H29.063V19.8305ZM26.4491 20.5011L19.589 0.840053L17.7007 1.49893L24.5607 21.1599L26.4491 20.5011ZM18.6449 2.16949H23.2562V0.169491H18.6449V2.16949ZM22.3032 1.47255L24.8366 9.43866L26.7425 8.83253L24.2091 0.866428L22.3032 1.47255ZM24.8307 9.41945L26.3109 14.4195L28.2286 13.8517L26.7484 8.85173L24.8307 9.41945ZM27.2697 15.1356H27.412V13.1356H27.2697V15.1356ZM28.3741 14.4086L29.7688 9.49333L27.8448 8.94735L26.45 13.8626L28.3741 14.4086ZM29.7617 9.51743L32.2666 1.46658L30.3569 0.872402L27.852 8.92325L29.7617 9.51743ZM31.3117 2.16949H35.8946V0.169491H31.3117V2.16949ZM34.95 0.841272L28.1184 20.5023L30.0076 21.1587L36.8392 1.49771L34.95 0.841272ZM38.9561 20.8305V1.16949H36.9561V20.8305H38.9561ZM37.9561 2.16949H51.9608V0.169491H37.9561V2.16949ZM50.9608 1.16949V5.0678H52.9608V1.16949H50.9608ZM51.9608 4.0678H42.3397V6.0678H51.9608V4.0678ZM41.3397 5.0678V9.05085H43.3397V5.0678H41.3397ZM42.3397 10.0508H50.5376V8.05085H42.3397V10.0508ZM49.5376 9.05085V12.8079H51.5376V9.05085H49.5376ZM50.5376 11.8079H42.3397V13.8079H50.5376V11.8079ZM41.3397 12.8079V16.9322H43.3397V12.8079H41.3397ZM42.3397 17.9322H51.9608V15.9322H42.3397V17.9322ZM50.9608 16.9322V20.8305H52.9608V16.9322H50.9608ZM51.9608 19.8305H37.9561V21.8305H51.9608V19.8305ZM61.6056 5.0678V20.8305H63.6056V5.0678H61.6056ZM62.6056 19.8305H58.2504V21.8305H62.6056V19.8305ZM59.2504 20.8305V5.0678H57.2504V20.8305H59.2504ZM58.2504 4.0678H52.8421V6.0678H58.2504V4.0678ZM53.8421 5.0678V1.16949H51.8421V5.0678H53.8421ZM52.8421 2.16949H68.0139V0.169491H52.8421V2.16949ZM67.0139 1.16949V5.0678H69.0139V1.16949H67.0139ZM68.0139 4.0678H62.6056V6.0678H68.0139V4.0678Z" fill="black" mask="url(#path-1-outside-1_2217_8135)"/>
</svg>
