<svg width="18" height="18" viewBox="0 0 18 18" fill="none" xmlns="http://www.w3.org/2000/svg">
<path d="M13.1019 4.15254L13.8477 4.89831C13.9139 4.96461 13.9139 5.0309 13.8477 5.09719L5.09721 13.8476C5.03092 13.9139 4.96463 13.9139 4.89833 13.8476L4.15256 13.1019C4.08627 13.0356 4.08627 12.9693 4.15256 12.903L12.903 4.15254C12.9693 4.08625 13.0356 4.08625 13.1019 4.15254Z" fill="#B1B1B1"/>
<path d="M5.29621 4.35127L13.6489 12.704C13.7152 12.7703 13.7152 12.8365 13.6489 12.9028L12.9031 13.6486C12.8368 13.7149 12.7706 13.7149 12.7043 13.6486L4.35156 5.29592C4.28527 5.22963 4.28527 5.16334 4.35156 5.09704L5.09734 4.35127C5.16363 4.28498 5.22992 4.28498 5.29621 4.35127Z" fill="#B1B1B1"/>
</svg>
